<svg id="SvgjsSvg1001" width="288" height="288" xmlns="http://www.w3.org/2000/svg" version="1.1"
    xmlns:xlink="http://www.w3.org/1999/xlink" xmlns:svgjs="http://svgjs.com/svgjs">
    <circle id="SvgjsCircle1017" r="144" cx="144" cy="144"
        transform="matrix(0.81,0,0,0.81,27.359999999999985,27.359999999999985)" fill="#ffffff"></circle>
    <defs id="SvgjsDefs1002"></defs>
    <g id="SvgjsG1008" transform="matrix(0.95,0,0,0.95,7.200000000000017,7.200000000000017)"><svg
            xmlns="http://www.w3.org/2000/svg" xmlns:svgjs="http://svgjs.com/svgjs"
            xmlns:xlink="http://www.w3.org/1999/xlink" viewBox="0 0 288 288" width="288" height="288">
            <circle cx="144" cy="144" r="144" fill="#ffffff" transform="translate(30.01 30.01) scale(.7916)"
                class="colorfff svgShape"></circle><svg xmlns="http://www.w3.org/2000/svg" fill="none"
                transform="matrix(.77 0 0 .77 33.12 33.12)" viewBox="0 0 16 16" width="288" height="288">
                <rect width="16" height="16" fill="#ffffff" class="color000 svgShape colorfff"></rect>
                <path fill="#205d76"
                    d="M9.45755 10.7087C8.94411 10.7087 8.52789 10.2925 8.52789 9.77902C8.52789 9.26559 8.94411 8.84937 9.45755 8.84937C9.97098 8.84937 10.3872 9.26559 10.3872 9.77902C10.3872 10.2925 9.97098 10.7087 9.45755 10.7087Z"
                    class="color205d76 svgShape"></path>
                <path fill="#205d76"
                    d="M6.86058 12.7768L8.10198 12.827C8.173 12.8271 8.24138 12.8001 8.29312 12.7514C8.34486 12.7028 8.37606 12.6362 8.38032 12.5653V12.3009C8.38091 12.2323 8.35613 12.1659 8.31074 12.1144C6.5377 10.0742 6.41245 8.97195 6.40688 8.92742L6.34008 8.25378L6.66574 8.84669C7.42004 10.2161 9.05391 10.9899 9.25988 11.0734C11.4866 11.2042 11.9264 12.3622 11.9431 12.4123L12.0739 12.7685L11.7427 12.5792C10.9077 12.1005 10.2675 12.0393 10.0142 12.4123C9.92712 12.57 9.89918 12.7537 9.93541 12.9302C9.97163 13.1067 10.0696 13.2646 10.2118 13.3753C10.9355 13.9515 12.1379 15.1734 12.1908 15.2262L12.9507 16L12.0182 15.4434C9.92511 14.1908 7.59262 13.4949 7.34211 13.6787C7.20016 13.957 7.25861 14.7113 7.29201 14.9841L7.34767 15.4322L7.04985 15.0954C6.71584 14.7169 6.49317 13.9375 6.35678 13.3502C6.34089 13.278 6.34183 13.2032 6.35954 13.1314C6.37724 13.0596 6.41123 12.9929 6.45886 12.9364C6.5065 12.8799 6.56651 12.8351 6.63424 12.8055C6.70197 12.7759 6.77561 12.7622 6.84945 12.7657L6.86058 12.7768Z"
                    class="color205d76 svgShape"></path>
                <path fill="#ff8614"
                    d="M4.19695 1.4567C4.3941 0.925337 4.78347 0.487326 5.28805 0.229236C5.80369 -0.0174643 6.39177 -0.0669665 6.9414 0.0900657C7.21836 0.172577 7.47505 0.311953 7.69504 0.499355C7.91503 0.686757 8.09349 0.918033 8.21898 1.17836C8.37036 1.48764 8.47809 1.81644 8.53907 2.15534C8.95404 1.79082 9.47092 1.56248 10.0198 1.50121C10.3945 1.46349 10.7729 1.50043 11.1332 1.6098C11.5053 1.73216 11.8225 1.98143 12.0295 2.31401C12.207 2.63332 12.3086 2.98921 12.3265 3.35412C12.3444 3.71903 12.278 4.0831 12.1325 4.41822C11.8587 5.05556 11.4347 5.61715 10.8966 6.0549C11.3595 5.56635 11.7092 4.98196 11.9209 4.34313C12.0209 4.04255 12.0535 3.72361 12.0164 3.40903C11.9794 3.09444 11.8736 2.79191 11.7066 2.52276C11.5385 2.28012 11.2901 2.10464 11.0052 2.02731C10.7054 1.95583 10.395 1.93975 10.0894 1.97995C9.78552 2.02698 9.49396 2.1339 9.23165 2.29444C8.96934 2.45498 8.7415 2.66597 8.56134 2.9152L8.11878 3.49139L8.08259 2.75374C8.06223 2.29482 7.94559 1.84532 7.74023 1.43441C7.64822 1.24187 7.51778 1.07023 7.35695 0.929982C7.19611 0.78973 7.00828 0.683844 6.80501 0.618887C6.38459 0.498629 5.93527 0.53018 5.53577 0.707975C5.1356 0.898782 4.8224 1.23383 4.659 1.64595C4.48707 2.08145 4.40563 2.54744 4.41963 3.01543C4.43866 3.50055 4.51053 3.98211 4.63394 4.45165C4.90217 5.41025 5.27556 6.33624 5.74731 7.21277L5.33258 6.58372C5.19063 6.37496 5.08486 6.14676 4.95682 5.92966C4.82878 5.71255 4.72858 5.47876 4.62281 5.24774C4.51332 5.019 4.4203 4.78273 4.34447 4.54074C4.17411 4.05418 4.06472 3.54834 4.01881 3.03487C3.9655 2.50212 4.02622 1.96415 4.19695 1.4567V1.4567Z"
                    class="colorFF8614 svgShape colorff8614"></path>
            </svg>
        </svg></g>
</svg>